<?xml version="1.0" encoding="UTF-8"?>
<svg version="1.1" xmlns="http://www.w3.org/2000/svg" width="512" height="512">
<path d="M0 0 C1.01790619 0.00215515 2.03581238 0.0043103 3.08456421 0.00653076 C17.69363523 0.05620146 32.02575853 0.30709809 46.375 3.3125 C47.34985352 3.51117676 48.32470703 3.70985352 49.32910156 3.91455078 C97.7109774 14.03517194 141.69928269 35.9516877 177.375 70.3125 C178.3640332 71.26068604 178.3640332 71.26068604 179.37304688 72.22802734 C188.86130305 81.37247479 197.6012044 90.66984009 205.375 101.3125 C206.23306152 102.46355017 207.09113451 103.61459177 207.94921875 104.765625 C213.98736829 112.95680614 219.34595521 121.47054105 224.375 130.3125 C224.73948242 130.94430176 225.10396484 131.57610352 225.47949219 132.22705078 C247.08534998 169.97532572 256.85198095 212.74189997 256.6875 255.9375 C256.68534485 256.95540619 256.6831897 257.97331238 256.68096924 259.02206421 C256.63129854 273.63113523 256.38040191 287.96325853 253.375 302.3125 C253.07698486 303.77478027 253.07698486 303.77478027 252.77294922 305.26660156 C242.65232806 353.6484774 220.7358123 397.63678269 186.375 433.3125 C185.74287598 433.97185547 185.11075195 434.63121094 184.45947266 435.31054688 C175.31502521 444.79880305 166.01765991 453.5387044 155.375 461.3125 C154.22394983 462.17056152 153.07290823 463.02863451 151.921875 463.88671875 C143.73224019 469.92427396 135.22961724 475.30707302 126.375 480.3125 C125.66778809 480.7146875 124.96057617 481.116875 124.23193359 481.53125 C101.09654164 494.5566741 75.92537591 503.30551461 49.9375 508.625 C49.21860596 508.77235596 48.49971191 508.91971191 47.7590332 509.0715332 C33.08339502 511.86090125 18.55831162 512.66142619 3.64770508 512.62817383 C0.70811513 512.6250221 -2.2304558 512.64854926 -5.16992188 512.67382812 C-18.54306192 512.71848737 -31.43916711 511.51301542 -44.625 509.3125 C-46.33055054 509.03031616 -46.33055054 509.03031616 -48.07055664 508.74243164 C-91.33802759 500.97044532 -132.38793216 480.98345309 -165.625 452.3125 C-166.37007813 451.67828125 -167.11515625 451.0440625 -167.8828125 450.390625 C-181.38779833 438.57948485 -194.05918743 425.82889772 -204.625 411.3125 C-205.48149066 410.16255169 -206.33826433 409.01281411 -207.1953125 407.86328125 C-213.23534209 399.67315742 -218.61867614 391.16870382 -223.625 382.3125 C-224.0271875 381.60528809 -224.429375 380.89807617 -224.84375 380.16943359 C-237.8691741 357.03404164 -246.61801461 331.86287591 -251.9375 305.875 C-252.08485596 305.15610596 -252.23221191 304.43721191 -252.3840332 303.6965332 C-255.35789088 288.05024391 -255.99800362 272.57681954 -255.9375 256.6875 C-255.93534485 255.66959381 -255.9331897 254.65168762 -255.93096924 253.60293579 C-255.88129854 238.99386477 -255.63040191 224.66174147 -252.625 210.3125 C-252.42632324 209.33764648 -252.22764648 208.36279297 -252.02294922 207.35839844 C-241.90232806 158.9765226 -219.9858123 114.98821731 -185.625 79.3125 C-184.99287598 78.65314453 -184.36075195 77.99378906 -183.70947266 77.31445312 C-174.56502521 67.82619695 -165.26765991 59.0862956 -154.625 51.3125 C-153.47394983 50.45443848 -152.32290823 49.59636549 -151.171875 48.73828125 C-142.98224019 42.70072604 -134.47961724 37.31792698 -125.625 32.3125 C-124.91778809 31.9103125 -124.21057617 31.508125 -123.48193359 31.09375 C-100.34654164 18.0683259 -75.17537591 9.31948539 -49.1875 4 C-48.46860596 3.85264404 -47.74971191 3.70528809 -47.0090332 3.5534668 C-31.36274391 0.57960912 -15.88931954 -0.06050362 0 0 Z " fill="#000000" transform="translate(255.625,-0.3125)"/>
<path d="M0 0 C10.74363638 -0.39541012 21.48552113 -0.69667722 32.23497391 -0.88080692 C37.22796306 -0.96922951 42.21594739 -1.08891018 47.20605469 -1.2824707 C52.03058866 -1.46841856 56.8503422 -1.56905811 61.67818451 -1.61291313 C63.51114983 -1.64411921 65.34387759 -1.70507741 67.1747818 -1.79741096 C81.10783794 -2.47154434 81.10783794 -2.47154434 85.93604851 1.65448189 C89.52985011 5.71782541 92.27079272 10.20633085 94.86129189 14.95542717 C96.41823512 17.75094939 98.21151338 20.30425268 100.06640625 22.91015625 C101.23315382 24.62666493 102.39853919 26.3441004 103.5625 28.0625 C104.83960178 29.94157073 106.11694718 31.8204759 107.39453125 33.69921875 C108.00635254 34.59946777 108.61817383 35.4997168 109.24853516 36.42724609 C111.73801927 40.08408797 114.24168842 43.73105524 116.75 47.375 C117.18836182 48.01187744 117.62672363 48.64875488 118.07836914 49.30493164 C118.94861209 50.56892917 119.81897217 51.83284606 120.68945312 53.09667969 C122.96155061 56.39646956 125.23057913 59.69836901 127.5 63 C128.41665286 64.33334282 129.33331951 65.66667617 130.25 67 C132.08333333 69.66666667 133.91666667 72.33333333 135.75 75 C136.20455566 75.66104736 136.65911133 76.32209473 137.12744141 77.00317383 C138.03644063 78.3256044 138.94497569 79.64835415 139.85302734 80.97143555 C142.25813426 84.47445085 144.6729972 87.9702296 147.1015625 91.45703125 C147.86049805 92.55047852 147.86049805 92.55047852 148.63476562 93.66601562 C149.60707903 95.06650374 150.58221285 96.46503916 151.56054688 97.86132812 C153.42776501 100.55596936 154.95738921 102.87216763 156 106 C163.76762167 98.3150126 170.92532375 90.18303472 177.78515625 81.68359375 C180.66480887 78.19449084 183.70693876 74.87003079 186.75390625 71.52734375 C189.06187598 68.93037607 191.25555863 66.26595987 193.4375 63.5625 C197.29708603 58.79003797 201.37199991 54.26890891 205.52734375 49.75390625 C208.74709519 46.16792716 211.75905176 42.43298508 214.78515625 38.68359375 C216.95632827 36.05291443 219.20241357 33.52057576 221.5 31 C225.41205621 26.70760499 229.07913723 22.25679354 232.73046875 17.7421875 C235.69805365 14.15656857 238.80985185 10.71713769 241.95703125 7.2890625 C244.10861641 5.06244283 244.10861641 5.06244283 245.46484375 2.23046875 C249.81888298 -1.60028071 255.18623838 -0.5136371 260.75 -0.3125 C262.51150391 -0.27866211 262.51150391 -0.27866211 264.30859375 -0.24414062 C267.20701637 -0.1852296 270.10286427 -0.10301631 273 0 C270.77430331 3.82150928 268.40959577 6.89773148 265.375 10.125 C261.93245371 13.84734686 258.62187109 17.61701385 255.4375 21.5625 C251.84917586 26.00849037 248.0940452 30.25124677 244.24609375 34.47265625 C241.93812402 37.06962393 239.74444137 39.73404013 237.5625 42.4375 C233.70291397 47.20996203 229.62800009 51.73109109 225.47265625 56.24609375 C222.25290481 59.83207284 219.24094824 63.56701492 216.21484375 67.31640625 C213.33519113 70.80550916 210.29306124 74.12996921 207.24609375 77.47265625 C204.93812402 80.06962393 202.74444137 82.73404013 200.5625 85.4375 C197.48663412 89.24087503 194.31246834 92.90082652 191 96.5 C186.87849602 100.97878606 183.00570363 105.60478783 179.18359375 110.33984375 C175.90659887 114.3320325 172.46764396 118.17330843 169 122 C170.5445472 125.28228265 172.40459982 128.23599002 174.4140625 131.25390625 C175.09339844 132.27419922 175.77273438 133.29449219 176.47265625 134.34570312 C177.18292969 135.40724609 177.89320313 136.46878906 178.625 137.5625 C179.31207031 138.59697266 179.99914062 139.63144531 180.70703125 140.69726562 C184.67519902 146.64207231 188.76647696 152.46700415 192.99511719 158.22875977 C196.54670781 163.1379299 199.92159689 168.16663989 203.3125 173.1875 C204.8104011 175.39897784 206.30958794 177.60958337 207.80859375 179.8203125 C208.52772949 180.8815332 209.24686523 181.94275391 209.98779297 183.03613281 C212.60284533 186.88795709 215.23415716 190.728326 217.875 194.5625 C218.30530518 195.18729248 218.73561035 195.81208496 219.17895508 196.45581055 C220.02634999 197.68567089 220.87392177 198.91540939 221.72167969 200.14501953 C223.98406649 203.42798647 226.24169814 206.71422243 228.5 210 C229.41664597 211.33334756 230.33331259 212.66668093 231.25 214 C240.41666667 227.33333333 249.58333333 240.66666667 258.75 254 C259.20431396 254.66080566 259.65862793 255.32161133 260.12670898 256.00244141 C261.03773437 257.32759868 261.94870497 258.65279362 262.85961914 259.97802734 C265.23713549 263.43677493 267.61577408 266.89474345 269.99609375 270.3515625 C270.48851562 271.06699219 270.9809375 271.78242188 271.48828125 272.51953125 C272.4241235 273.87915113 273.36029769 275.23854262 274.296875 276.59765625 C275.13846368 277.82062952 275.97824159 279.0448515 276.81591797 280.27050781 C277.60617927 281.42477814 278.40210927 282.57518754 279.20361328 283.72167969 C282 287.77821961 282 287.77821961 282 290 C271.22138109 290.32528372 260.44394018 290.57357336 249.66140175 290.72537041 C244.65351919 290.79825436 239.64900806 290.89697016 234.64306641 291.05615234 C229.80573202 291.2089991 224.9716246 291.29211647 220.132061 291.3282814 C218.2921097 291.3540269 216.45232321 291.40431359 214.61375809 291.48022079 C200.6227637 292.03454272 200.6227637 292.03454272 196.27187729 288.65945244 C193.21624525 285.39575189 191.0204239 281.74254915 188.96414185 277.79290962 C187.44747583 274.97253095 185.62549782 272.40236843 183.8046875 269.76953125 C182.49233741 267.78547535 181.18240958 265.79981496 179.875 263.8125 C175.38512238 256.9887751 170.79490806 250.28363406 165.95996094 243.69946289 C162.76933461 239.3049991 159.73091198 234.80959066 156.6875 230.3125 C155.37394153 228.37874075 154.06013783 226.44514805 152.74609375 224.51171875 C151.79065674 223.1047876 151.79065674 223.1047876 150.81591797 221.66943359 C147.01242547 216.07822803 143.17288144 210.51181695 139.33691406 204.94287109 C137.90752546 202.86561132 136.4808527 200.78650527 135.0546875 198.70703125 C134.31943848 197.63557861 134.31943848 197.63557861 133.56933594 196.54248047 C132.6424132 195.19157988 131.71594117 193.84036986 130.79003906 192.48876953 C130.3669043 191.87243652 129.94376953 191.25610352 129.5078125 190.62109375 C129.09821289 190.02409668 128.68861328 189.42709961 128.26660156 188.81201172 C126.93383372 186.90534191 125.55716029 185.03470022 124.1796875 183.16015625 C122 180 122 180 122 178 C113.8857715 186.02666489 106.33529844 194.46434464 99.1796875 203.3515625 C97.02242601 205.97275119 94.78689 208.49154281 92.5 211 C89.40444804 214.39598682 86.44848793 217.86171531 83.5625 221.4375 C79.70291397 226.20996203 75.62800009 230.73109109 71.47265625 235.24609375 C68.25290481 238.83207284 65.24094824 242.56701492 62.21484375 246.31640625 C59.33519113 249.80550916 56.29306124 253.12996921 53.24609375 256.47265625 C50.93812402 259.06962393 48.74444137 261.73404013 46.5625 264.4375 C42.73804099 269.16968401 38.71405706 273.66210071 34.5546875 278.1015625 C32.03513441 280.78870055 32.03513441 280.78870055 30.5925293 283.3190918 C28.18506648 287.07994312 26.56409519 289.61108131 22.09765625 290.72167969 C18.71038385 290.88554713 15.44583496 290.78754275 12.0625 290.5625 C10.90169922 290.52189453 9.74089844 290.48128906 8.54492188 290.43945312 C5.69226713 290.33379925 2.84833646 290.18628025 0 290 C1.61817175 286.59170063 3.47765964 284.20469242 6.0625 281.4375 C9.33018473 277.87703072 12.46479193 274.2606708 15.5 270.5 C19.11149134 266.03579543 22.88660694 261.76997886 26.75390625 257.52734375 C29.06187598 254.93037607 31.25555863 252.26595987 33.4375 249.5625 C37.29708603 244.79003797 41.37199991 240.26890891 45.52734375 235.75390625 C48.74709519 232.16792716 51.75905176 228.43298508 54.78515625 224.68359375 C57.66480887 221.19449084 60.70693876 217.87003079 63.75390625 214.52734375 C66.06187598 211.93037607 68.25555863 209.26595987 70.4375 206.5625 C74.29708603 201.79003797 78.37199991 197.26890891 82.52734375 192.75390625 C85.74152105 189.17413533 88.74855372 185.44592902 91.76953125 181.703125 C94.02953072 178.96421145 96.36642689 176.3192799 98.75 173.6875 C99.48476562 172.8728125 100.21953125 172.058125 100.9765625 171.21875 C102.20569886 169.87097113 103.44734069 168.53427544 104.7109375 167.21875 C106.29676509 165.57115991 106.29676509 165.57115991 108 163 C107.66006063 159.32426608 106.54746848 156.90955393 104.4453125 153.91796875 C103.65543945 152.78004883 103.65543945 152.78004883 102.84960938 151.61914062 C102.28048828 150.81669922 101.71136719 150.01425781 101.125 149.1875 C100.53783203 148.34509766 99.95066406 147.50269531 99.34570312 146.63476562 C98.14146137 144.90716691 96.93410162 143.18173745 95.72363281 141.45849609 C93.29123217 137.98905212 90.89533131 134.49508301 88.5 131 C87.60432338 129.69780886 86.70848772 128.3957271 85.8125 127.09375 C82.7008048 122.56764789 79.60027173 118.03393129 76.5 113.5 C71.1264979 105.64210292 65.73910984 97.79388899 60.34277344 89.95166016 C58.06091481 86.63508236 55.78054245 83.3174829 53.5 80 C52.58334024 78.66666192 51.66667358 77.33332858 50.75 76 C41.58333333 62.66666667 32.41666667 49.33333333 23.25 36 C22.79568604 35.33919434 22.34137207 34.67838867 21.87329102 33.99755859 C20.96226563 32.67240132 20.05129503 31.34720638 19.14038086 30.02197266 C16.76286451 26.56322507 14.38422592 23.10525655 12.00390625 19.6484375 C11.51148437 18.93300781 11.0190625 18.21757812 10.51171875 17.48046875 C9.5758765 16.12084887 8.63970231 14.76145738 7.703125 13.40234375 C6.86153632 12.17937048 6.02175841 10.9551485 5.18408203 9.72949219 C4.39382073 8.57522186 3.59789073 7.42481246 2.79638672 6.27832031 C0 2.22178039 0 2.22178039 0 0 Z " fill="#FBFBFB" transform="translate(115,111)"/>
<path d="M0 0 C5.20957617 -0.37422359 10.41118661 -0.64434087 15.63110352 -0.82397461 C17.40039328 -0.89888308 19.16877049 -1.00087725 20.93481445 -1.1315918 C35.12744749 -2.15480962 35.12744749 -2.15480962 39.8298645 1.37265015 C43.18899261 4.8898209 45.63017155 8.90756236 47.9680481 13.15090942 C49.29421914 15.52719302 50.8368289 17.7109694 52.42578125 19.91796875 C53.39034282 21.33957313 54.35259813 22.76274513 55.3125 24.1875 C61.53411055 33.34706729 67.87038223 42.4225233 74.23388672 51.48388672 C77.16021864 55.65291862 80.07978099 59.8266852 83 64 C84.16663389 65.66668961 85.33330057 67.33335627 86.5 69 C97 84 97 84 107.5 99 C108.07733887 99.8247583 108.65467773 100.6495166 109.24951172 101.49926758 C110.41784967 103.16834507 111.58614384 104.83745322 112.75439453 106.5065918 C115.64513489 110.63662338 118.53659854 114.76614446 121.4296875 118.89453125 C128.31728062 128.72500507 135.18294378 138.57042296 142.03417969 148.42626953 C148.09800618 157.14686679 154.18658311 165.84996444 160.28222656 174.54833984 C163.1896209 178.69786428 166.09468001 182.84902306 169 187 C170.16665575 188.66667431 171.33332241 190.33334098 172.5 192 C179.5 202 179.5 202 181.25097656 204.50146484 C182.41430058 206.16330991 183.57771164 207.82509405 184.74121094 209.48681641 C187.70974716 213.72675092 190.67662944 217.96782728 193.640625 222.2109375 C194.84373586 223.93230155 196.04686068 225.65365584 197.25 227.375 C198.1164917 228.61612549 198.1164917 228.61612549 199.00048828 229.88232422 C201.67488216 233.70648606 204.3634057 237.51804253 207.1015625 241.296875 C207.57303711 241.94865723 208.04451172 242.60043945 208.53027344 243.27197266 C209.40162707 244.47269417 210.2770352 245.67048797 211.15722656 246.86474609 C214 250.78051529 214 250.78051529 214 253 C208.79042383 253.37422359 203.58881339 253.64434087 198.36889648 253.82397461 C196.59960672 253.89888308 194.83122951 254.00087725 193.06518555 254.1315918 C178.89708302 255.15304109 178.89708302 255.15304109 174.19229126 251.65655518 C170.83995107 248.16130081 168.42877392 244.14308625 166.0899353 239.92532349 C164.57514574 237.24951336 162.79460172 234.79803882 160.98828125 232.3125 C159.76105784 230.5430265 158.53581772 228.77217593 157.3125 227 C155.93624119 225.01429293 154.5599378 223.02861675 153.18359375 221.04296875 C152.1469458 219.54515869 152.1469458 219.54515869 151.08935547 218.01708984 C147.69161791 213.11065835 144.28342223 208.21151242 140.875 203.3125 C140.21169678 202.35883545 139.54839355 201.4051709 138.86499023 200.42260742 C132.83323191 191.75348109 126.77865949 183.10043738 120.71777344 174.45166016 C117.8103791 170.30213572 114.90531999 166.15097694 112 162 C110.83334425 160.33332569 109.66667759 158.66665902 108.5 157 C101.5 147 94.5 137 87.5 127 C86.92266113 126.1752417 86.34532227 125.3504834 85.75048828 124.50073242 C84.58215033 122.83165493 83.41385616 121.16254678 82.24560547 119.4934082 C79.35486511 115.36337662 76.46340146 111.23385554 73.5703125 107.10546875 C66.68271938 97.27499493 59.81705622 87.42957704 52.96582031 77.57373047 C46.90199382 68.85313321 40.81341689 60.15003556 34.71777344 51.45166016 C31.81037909 47.3021357 28.90534686 43.15095815 26 39 C25.42886475 38.18418457 24.85772949 37.36836914 24.26928711 36.52783203 C21.23966276 32.20028471 18.21097506 27.87208556 15.18359375 23.54296875 C14.55646484 22.64642578 13.92933594 21.74988281 13.28320312 20.82617188 C12.09021391 19.12063915 10.89748732 17.41492267 9.70507812 15.70898438 C8.89006836 14.54399414 8.89006836 14.54399414 8.05859375 13.35546875 C7.54409668 12.6186084 7.02959961 11.88174805 6.49951172 11.12255859 C5.50892548 9.72038394 4.50549505 8.32718567 3.48876953 6.94384766 C0 2.19623113 0 2.19623113 0 0 Z " fill="#010101" transform="translate(149,130)"/>
</svg>
